<!DOCTYPE svg PUBLIC "-//W3C//DTD SVG 1.1//EN" "http://www.w3.org/Graphics/SVG/1.1/DTD/svg11.dtd">

<!-- Uploaded to: SVG Repo, www.svgrepo.com, Transformed by: SVG Repo Mixer Tools -->
<svg fill="#F69E51" width="128px" height="128px" viewBox="0 0 22.00 22.00" xmlns="http://www.w3.org/2000/svg" stroke="#F69E51" stroke-width="0.00064">

<g id="SVGRepo_bgCarrier" stroke-width="0"/>

<g id="SVGRepo_tracerCarrier" stroke-linecap="round" stroke-linejoin="round"/>

<g id="SVGRepo_iconCarrier">

<path d="M11 11h4a1 1 0 0 0 0-2h-4V5a1 1 0 0 0-2 0v4H5a1 1 0 1 0 0 2h4v4a1 1 0 0 0 2 0v-4zm-1 9C4.477 20 0 15.523 0 10S4.477 0 10 0s10 4.477 10 10-4.477 10-10 10z"/>

</g>

</svg>