<?xml version="1.0" encoding="UTF-8" standalone="no"?>
<!-- Uploaded to: SVG Repo, www.svgrepo.com, Transformed by: SVG Repo Mixer Tools -->

<svg
   fill="#F69E51"
   width="128px"
   height="128px"
   viewBox="0 0 23.00 23.00"
   stroke="#F69E51"
   stroke-width="0.00064"
   version="1.1"
   id="svg1"
   sodipodi:docname="upload_icon.svg"
   inkscape:version="1.3.2 (091e20e, 2023-11-25, custom)"
   xmlns:inkscape="http://www.inkscape.org/namespaces/inkscape"
   xmlns:sodipodi="http://sodipodi.sourceforge.net/DTD/sodipodi-0.dtd"
   xmlns="http://www.w3.org/2000/svg"
   xmlns:svg="http://www.w3.org/2000/svg">
  <defs
     id="defs1" />
  <sodipodi:namedview
     id="namedview1"
     pagecolor="#ffffff"
     bordercolor="#000000"
     borderopacity="0.25"
     inkscape:showpageshadow="2"
     inkscape:pageopacity="0.0"
     inkscape:pagecheckerboard="0"
     inkscape:deskcolor="#d1d1d1"
     inkscape:zoom="3.2070313"
     inkscape:cx="133.92448"
     inkscape:cy="14.811206"
     inkscape:window-width="1920"
     inkscape:window-height="1017"
     inkscape:window-x="-8"
     inkscape:window-y="-8"
     inkscape:window-maximized="1"
     inkscape:current-layer="svg1" />
  <g
     id="SVGRepo_bgCarrier"
     stroke-width="0" />
  <g
     id="SVGRepo_tracerCarrier"
     stroke-linecap="round"
     stroke-linejoin="round" />
  <g
     id="SVGRepo_iconCarrier"
     transform="matrix(1.1001626,0,0,1.1002117,-0.00121883,-0.00121883)">
    <path
       d="m 11,11 h 4 A 1,1 0 0 0 15,9 H 11 V 5 A 1,1 0 0 0 9,5 V 9 H 5 a 1,1 0 1 0 0,2 h 4 v 4 a 1,1 0 0 0 2,0 z m -1,9 C 4.477,20 0,15.523 0,10 0,4.477 4.477,0 10,0 c 5.523,0 10,4.477 10,10 0,5.523 -4.477,10 -10,10 z"
       id="path1" />
  </g>
</svg>
